Anti.glyphspackage
{
glyphname = parenright;
layers = (
{
attr = {
colorPalette = 3;
};
layerId = m01;
shapes = (
{
closed = 1;
nodes = (
(78,-150,o),
(100,-128,o),
(100,-100,cs),
(100,460,ls),
(100,488,o),
(78,510,o),
(50,510,cs),
(22,510,o),
(0,488,o),
(0,460,cs),
(0,-100,ls),
(0,-128,o),
(22,-150,o),
(50,-150,cs)
);
}
);
width = 150;
}
);
unicode = (41,40);
}
{
glyphname = bracketright;
layers = (
{
attr = {
colorPalette = 3;
};
layerId = m01;
shapes = (
{
closed = 1;
nodes = (
(77,369,o),
(100,391,o),
(100,419,cs),
(100,420,l),
(100,460,ls),
(100,488,o),
(78,510,o),
(50,510,cs),
(22,510,o),
(0,488,o),
(0,460,cs),
(0,420,ls),
(0,392,o),
(21,370,o),
(49,370,cs)
);
},
{
closed = 1;
nodes = (
(77,-151,o),
(100,-129,o),
(100,-101,cs),
(100,-100,l),
(100,-60,ls),
(100,-32,o),
(78,-10,o),
(50,-10,cs),
(22,-10,o),
(0,-32,o),
(0,-60,cs),
(0,-100,ls),
(0,-128,o),
(21,-150,o),
(49,-150,cs)
);
},
{
pos = (110,0);
ref = parenright;
}
);
width = 260;
}
);
unicode = 93;
}
{
glyphname = "comma-ar";
layers = (
{
attr = {
colorPalette = 3;
};
hints = (
{
name = _corner.circle;
origin = (0,2);
type = Corner;
},
{
name = _corner.circle;
origin = (0,3);
scale = (1,-1);
type = Corner;
}
);
layerId = m01;
shapes = (
{
closed = 1;
nodes = (
(100,-50,l),
(100,50,l),
(0,50,l),
(0,-50,l)
);
}
);
width = 150;
}
);
unicode = 1548;
}
{
glyphname = "semicolon-ar";
layers = (
{
attr = {
colorPalette = 3;
};
layerId = m01;
shapes = (
{
closed = 1;
nodes = (
(77,-1,o),
(100,21,o),
(100,49,cs),
(100,50,l),
(100,150,ls),
(100,178,o),
(78,200,o),
(50,200,cs),
(22,200,o),
(0,178,o),
(0,150,cs),
(0,50,ls),
(0,22,o),
(21,0,o),
(49,0,cs)
);
},
{
pos = (0,-120);
ref = "dotbelow-ar";
}
);
width = 150;
}
);
unicode = 1563;
}
{
glyphname = "alef-ar";
layers = (
{
anchors = (
{
name = bottom;
pos = (50,-70);
},
{
name = bottom.m;
pos = (50,-300);
},
{
name = top;
pos = (50,730);
},
{
name = top.m;
pos = (50,910);
}
);
attr = {
colorPalette = 2;
};
hints = (
{
name = _corner.circle;
options = 1;
origin = (0,3);
scale = (1,-1);
type = Corner;
},
{
name = _corner.circle;
origin = (0,2);
type = Corner;
}
);
layerId = m01;
shapes = (
{
closed = 1;
nodes = (
(100,0,l),
(100,660,l),
(0,660,l),
(0,0,l)
);
}
);
width = 150;
}
);
unicode = 1575;
}
{
glyphname = "hah-ar";
layers = (
{
anchors = (
{
name = bottom;
pos = (160,-70);
},
{
name = bottom.m;
pos = (50,-300);
},
{
name = top;
pos = (50,270);
},
{
name = top.m;
pos = (50,910);
}
);
attr = {
colorPalette = 2;
};
layerId = m01;
shapes = (
{
closed = 1;
nodes = (
(187,-51,o),
(210,-29,o),
(210,-1,cs),
(210,0,l),
(210,320,ls),
(210,348,o),
(188,370,o),
(160,370,cs),
(132,370,o),
(110,348,o),
(110,320,cs),
(110,0,ls),
(110,-28,o),
(131,-50,o),
(159,-50,cs)
);
},
{
closed = 1;
nodes = (
(77,-171,o),
(100,-149,o),
(100,-121,cs),
(100,-120,l),
(100,200,ls),
(100,228,o),
(78,250,o),
(50,250,cs),
(22,250,o),
(0,228,o),
(0,200,cs),
(0,-120,ls),
(0,-148,o),
(21,-170,o),
(49,-170,cs)
);
}
);
width = 260;
}
);
unicode = 1581;
}
{
glyphname = "dal-ar";
layers = (
{
anchors = (
{
name = bottom.m;
pos = (160,-300);
},
{
name = top;
pos = (50,270);
},
{
name = top.m;
pos = (160,910);
}
);
attr = {
colorPalette = 2;
};
hints = (
{
name = _corner.circle;
origin = (0,2);
type = Corner;
},
{
name = _corner.circle;
origin = (0,3);
scale = (1,-1);
type = Corner;
}
);
layerId = m01;
shapes = (
{
closed = 1;
nodes = (
(100,0,l),
(100,200,l),
(0,200,l),
(0,0,l)
);
},
{
alignment = -1;
pos = (110,0);
ref = "behDotless-ar";
}
);
width = 260;
}
);
unicode = 1583;
}
{
glyphname = "sad-ar";
layers = (
{
anchors = (
{
name = bottom.m;
pos = (50,-300);
},
{
name = top.m;
pos = (50,910);
}
);
attr = {
colorPalette = 2;
};
layerId = m01;
shapes = (
{
closed = 1;
nodes = (
(77,-51,o),
(100,-29,o),
(100,-1,cs),
(100,0,l),
(100,430,ls),
(100,458,o),
(78,480,o),
(50,480,cs),
(22,480,o),
(0,458,o),
(0,430,cs),
(0,0,ls),
(0,-28,o),
(21,-50,o),
(49,-50,cs)
);
},
{
alignment = -1;
pos = (110,0);
ref = "behDotless-ar";
}
);
width = 260;
}
);
unicode = 1589;
}
{
glyphname = "ain-ar";
layers = (
{
anchors = (
{
name = bottom.m;
pos = (50,-300);
},
{
name = top;
pos = (50,270);
},
{
name = top.m;
pos = (50,910);
}
);
attr = {
colorPalette = 2;
};
layerId = m01;
shapes = (
{
closed = 1;
nodes = (
(77,-51,o),
(100,-29,o),
(100,-1,cs),
(100,0,l),
(100,200,ls),
(100,228,o),
(78,250,o),
(50,250,cs),
(22,250,o),
(0,228,o),
(0,200,cs),
(0,0,ls),
(0,-28,o),
(21,-50,o),
(49,-50,cs)
);
},
{
closed = 1;
nodes = (
(187,-51,o),
(210,-29,o),
(210,-1,cs),
(210,0,l),
(210,50,ls),
(210,78,o),
(188,100,o),
(160,100,cs),
(132,100,o),
(110,78,o),
(110,50,cs),
(110,0,ls),
(110,-28,o),
(131,-50,o),
(159,-50,cs)
);
}
);
width = 260;
}
);
unicode = 1593;
}
{
glyphname = "lam-ar";
layers = (
{
anchors = (
{
name = bottom.m;
pos = (50,-300);
},
{
name = top.m;
pos = (50,910);
}
);
attr = {
colorPalette = 2;
};
layerId = m01;
shapes = (
{
closed = 1;
nodes = (
(77,-171,o),
(100,-149,o),
(100,-121,cs),
(100,-120,l),
(100,660,ls),
(100,688,o),
(78,710,o),
(50,710,cs),
(22,710,o),
(0,688,o),
(0,660,cs),
(0,-120,ls),
(0,-148,o),
(21,-170,o),
(49,-170,cs)
);
}
);
width = 150;
}
);
unicode = 1604;
}
{
glyphname = "meem-ar";
layers = (
{
anchors = (
{
name = bottom.m;
pos = (105,-300);
},
{
name = top.m;
pos = (105,910);
}
);
attr = {
colorPalette = 2;
};
hints = (
{
name = _corner.circle;
origin = (0,2);
type = Corner;
},
{
name = _corner.circle;
origin = (0,3);
scale = (1,-1);
type = Corner;
}
);
layerId = m01;
shapes = (
{
closed = 1;
nodes = (
(210,0,l),
(210,200,l),
(110,200,l),
(110,0,l)
);
},
{
alignment = -1;
pos = (0,-120);
ref = "behDotless-ar";
}
);
width = 260;
}
);
unicode = 1605;
}
{
glyphname = "heh-ar";
layers = (
{
anchors = (
{
name = bottom.m;
pos = (160,-300);
},
{
name = top.m;
pos = (160,910);
}
);
attr = {
colorPalette = 2;
};
layerId = m01;
shapes = (
{
closed = 1;
nodes = (
(297,-51,o),
(320,-29,o),
(320,-1,cs),
(320,0,l),
(320,200,ls),
(320,228,o),
(298,250,o),
(270,250,cs),
(242,250,o),
(220,228,o),
(220,200,cs),
(220,0,ls),
(220,-28,o),
(241,-50,o),
(269,-50,cs)
);
},
{
closed = 1;
nodes = (
(77,-51,o),
(100,-29,o),
(100,-1,cs),
(100,0,l),
(100,200,ls),
(100,228,o),
(78,250,o),
(50,250,cs),
(22,250,o),
(0,228,o),
(0,200,cs),
(0,0,ls),
(0,-28,o),
(21,-50,o),
(49,-50,cs)
);
},
{
pos = (110,0);
ref = "behDotless-ar";
}
);
width = 370;
}
);
unicode = 1607;
}
{
glyphname = "waw-ar";
layers = (
{
anchors = (
{
name = bottom.m;
pos = (105,-300);
},
{
name = top;
pos = (105,270);
},
{
name = top.m;
pos = (105,910);
}
);
attr = {
colorPalette = 2;
};
hints = (
{
name = _corner.circle;
origin = (0,2);
type = Corner;
},
{
name = _corner.circle;
origin = (0,3);
scale = (1,-1);
type = Corner;
}
);
layerId = m01;
shapes = (
{
closed = 1;
nodes = (
(100,0,l),
(100,200,l),
(0,200,l),
(0,0,l)
);
},
{
alignment = -1;
pos = (110,-120);
ref = "behDotless-ar";
}
);
width = 260;
}
);
unicode = 1608;
}
{
glyphname = "fatha-ar";
layers = (
{
anchors = (
{
name = _top.m;
pos = (50,910);
},
{
name = top.m;
pos = (50,950);
}
);
attr = {
colorPalette = 4;
};
layerId = m01;
shapes = (
{
closed = 1;
nodes = (
(10,930,ls),
(4,930,o),
(0,926,o),
(0,920,cs),
(0,914,o),
(4,910,o),
(10,910,cs),
(90,910,ls),
(96,910,o),
(100,914,o),
(100,920,cs),
(100,926,o),
(96,930,o),
(90,930,cs)
);
}
);
width = 100;
}
);
unicode = 1614;
}
{
glyphname = "damma-ar";
layers = (
{
anchors = (
{
name = _top.m;
pos = (50,910);
},
{
name = top.m;
pos = (50,980);
}
);
attr = {
colorPalette = 4;
};
layerId = m01;
shapes = (
{
closed = 1;
nodes = (
(10,930,ls),
(4,930,o),
(0,926,o),
(0,920,cs),
(0,914,o),
(4,910,o),
(10,910,cs),
(90,910,ls),
(96,910,o),
(100,914,o),
(100,920,cs),
(100,926,o),
(96,930,o),
(90,930,cs)
);
},
{
closed = 1;
nodes = (
(60,960,ls),
(54,960,o),
(50,956,o),
(50,950,cs),
(50,944,o),
(54,940,o),
(60,940,cs),
(90,940,ls),
(96,940,o),
(100,944,o),
(100,950,cs),
(100,956,o),
(96,960,o),
(90,960,cs)
);
}
);
width = 100;
}
);
unicode = 1615;
}
{
glyphname = "shadda-ar";
layers = (
{
anchors = (
{
name = _top.m;
pos = (50,910);
},
{
name = top.m;
pos = (50,980);
}
);
attr = {
colorPalette = 4;
};
layerId = m01;
shapes = (
{
closed = 1;
nodes = (
(40,920,ls),
(40,914,o),
(44,910,o),
(50,910,cs),
(56,910,o),
(60,914,o),
(60,920,cs),
(60,950,ls),
(60,956,o),
(56,960,o),
(50,960,cs),
(44,960,o),
(40,956,o),
(40,950,cs)
);
},
{
closed = 1;
nodes = (
(10,920,ls),
(10,914,o),
(14,910,o),
(20,910,cs),
(26,910,o),
(30,914,o),
(30,920,cs),
(30,950,ls),
(30,956,o),
(26,960,o),
(20,960,cs),
(14,960,o),
(10,956,o),
(10,950,cs)
);
},
{
closed = 1;
nodes = (
(70,920,ls),
(70,914,o),
(74,910,o),
(80,910,cs),
(86,910,o),
(90,914,o),
(90,920,cs),
(90,950,ls),
(90,956,o),
(86,960,o),
(80,960,cs),
(74,960,o),
(70,956,o),
(70,950,cs)
);
}
);
width = 100;
}
);
unicode = 1617;
}
{
glyphname = "sukun-ar";
layers = (
{
anchors = (
{
name = _top.m;
pos = (50,910);
},
{
name = top.m;
pos = (50,980);
}
);
attr = {
colorPalette = 4;
};
layerId = m01;
shapes = (
{
closed = 1;
nodes = (
(35,930,ls),
(29,930,o),
(25,926,o),
(25,920,cs),
(25,914,o),
(29,910,o),
(35,910,cs),
(65,910,ls),
(71,910,o),
(75,914,o),
(75,920,cs),
(75,926,o),
(71,930,o),
(65,930,cs)
);
},
{
closed = 1;
nodes = (
(35,960,ls),
(29,960,o),
(25,956,o),
(25,950,cs),
(25,944,o),
(29,940,o),
(35,940,cs),
(65,940,ls),
(71,940,o),
(75,944,o),
(75,950,cs),
(75,956,o),
(71,960,o),
(65,960,cs)
);
}
);
width = 100;
}
);
unicode = 1618;
}
{
glyphname = "madda-ar";
layers = (
{
anchors = (
{
name = _top;
pos = (50,0);
}
);
layerId = m01;
shapes = (
{
closed = 1;
nodes = (
(106,44,l),
(106,75,o),
(81,100,o),
(50,100,cs),
(19,100,o),
(-6,75,o),
(-6,44,c)
);
}
);
width = 100;
},
{
anchors = (
{
name = _top;
pos = (50,0);
}
);
associatedMasterId = m01;
attr = {
colorPalette = 1;
};
layerId = "D52AFD9D-B1D2-4059-A27B-A4A5950AFB82";
name = "6 Jun 21, 20:16";
shapes = (
{
closed = 1;
nodes = (
(106,44,l),
(106,75,o),
(81,100,o),
(50,100,cs),
(19,100,o),
(-6,75,o),
(-6,44,c)
);
}
);
width = 100;
}
);
unicode = 1619;
}
{
glyphname = "hamzaabove-ar";
layers = (
{
anchors = (
{
name = _top;
pos = (50,0);
}
);
layerId = m01;
shapes = (
{
closed = 1;
nodes = (
(56,112,l),
(25,112,o),
(0,87,o),
(0,56,cs),
(0,25,o),
(25,0,o),
(56,0,c)
);
}
);
width = 100;
},
{
associatedMasterId = m01;
attr = {
colorPalette = 1;
};
layerId = "23E96FA2-5314-4739-A6D9-5626D7032869";
name = "6 Jun 21, 20:15";
shapes = (
{
closed = 1;
nodes = (
(56,112,l),
(25,112,o),
(0,87,o),
(0,56,cs),
(0,25,o),
(25,0,o),
(56,0,c)
);
}
);
width = 100;
}
);
unicode = 1620;
}
{
glyphname = "hamzabelow-ar";
layers = (
{
anchors = (
{
name = _bottom;
pos = (50,112);
}
);
layerId = m01;
shapes = (
{
closed = 1;
nodes = (
(56,112,l),
(25,112,o),
(0,87,o),
(0,56,cs),
(0,25,o),
(25,0,o),
(56,0,c)
);
}
);
width = 100;
},
{
anchors = (
{
name = _bottom;
pos = (50,112);
}
);
associatedMasterId = m01;
attr = {
colorPalette = 1;
};
layerId = "10388351-0420-4D07-A458-4BEF819FA53A";
name = "6 Jun 21, 20:16";
shapes = (
{
closed = 1;
nodes = (
(56,112,l),
(25,112,o),
(0,87,o),
(0,56,cs),
(0,25,o),
(25,0,o),
(56,0,c)
);
}
);
width = 100;
}
);
unicode = 1621;
}
{
glyphname = "zero-ar";
layers = (
{
attr = {
colorPalette = 2;
};
layerId = m01;
shapes = (
{
closed = 1;
nodes = (
(78,200,o),
(100,222,o),
(100,250,cs),
(100,278,o),
(78,300,o),
(50,300,cs),
(22,300,o),
(0,278,o),
(0,250,cs),
(0,222,o),
(22,200,o),
(50,200,cs)
);
}
);
width = 150;
}
);
unicode = (1632,1776);
}
{
glyphname = "one-ar";
layers = (
{
attr = {
colorPalette = 2;
};
hints = (
{
name = _corner.circle;
options = 1;
origin = (0,3);
scale = (1,-1);
type = Corner;
},
{
name = _corner.circle;
origin = (0,2);
type = Corner;
}
);
layerId = m01;
shapes = (
{
closed = 1;
nodes = (
(100,0,l),
(100,500,l),
(0,500,l),
(0,0,l)
);
}
);
width = 150;
}
);
unicode = (1633,1777);
}
{
glyphname = "two-ar";
layers = (
{
attr = {
colorPalette = 2;
};
layerId = m01;
shapes = (
{
closed = 1;
nodes = (
(78,-50,o),
(100,-28,o),
(100,0,cs),
(100,500,ls),
(100,528,o),
(78,550,o),
(50,550,cs),
(22,550,o),
(0,528,o),
(0,500,cs),
(0,0,ls),
(0,-28,o),
(22,-50,o),
(50,-50,cs)
);
},
{
closed = 1;
nodes = (
(188,250,o),
(210,272,o),
(210,300,cs),
(210,500,ls),
(210,528,o),
(188,550,o),
(160,550,cs),
(132,550,o),
(110,528,o),
(110,500,cs),
(110,300,ls),
(110,272,o),
(132,250,o),
(160,250,cs)
);
}
);
width = 260;
}
);
unicode = (1634,1778);
}
{
glyphname = "three-ar";
layers = (
{
attr = {
colorPalette = 2;
};
layerId = m01;
shapes = (
{
closed = 1;
nodes = (
(78,-50,o),
(100,-28,o),
(100,0,cs),
(100,500,ls),
(100,528,o),
(78,550,o),
(50,550,cs),
(22,550,o),
(0,528,o),
(0,500,cs),
(0,0,ls),
(0,-28,o),
(22,-50,o),
(50,-50,cs)
);
},
{
closed = 1;
nodes = (
(188,250,o),
(210,272,o),
(210,300,cs),
(210,500,ls),
(210,528,o),
(188,550,o),
(160,550,cs),
(132,550,o),
(110,528,o),
(110,500,cs),
(110,300,ls),
(110,272,o),
(132,250,o),
(160,250,cs)
);
},
{
closed = 1;
nodes = (
(298,250,o),
(320,272,o),
(320,300,cs),
(320,500,ls),
(320,528,o),
(298,550,o),
(270,550,cs),
(242,550,o),
(220,528,o),
(220,500,cs),
(220,300,ls),
(220,272,o),
(242,250,o),
(270,250,cs)
);
}
);
width = 370;
}
);
unicode = (1635,1779);
}
{
glyphname = "four-ar";
layers = (
{
attr = {
colorPalette = 2;
};
layerId = m01;
shapes = (
{
closed = 1;
nodes = (
(78,-50,o),
(100,-28,o),
(100,0,cs),
(100,500,ls),
(100,528,o),
(78,550,o),
(50,550,cs),
(22,550,o),
(0,528,o),
(0,500,cs),
(0,0,ls),
(0,-28,o),
(22,-50,o),
(50,-50,cs)
);
},
{
closed = 1;
nodes = (
(188,-50,o),
(210,-28,o),
(210,0,cs),
(210,80,ls),
(210,108,o),
(188,130,o),
(160,130,cs),
(132,130,o),
(110,108,o),
(110,80,cs),
(110,0,ls),
(110,-28,o),
(132,-50,o),
(160,-50,cs)
);
},
{
closed = 1;
nodes = (
(188,185,o),
(210,207,o),
(210,235,cs),
(210,265,ls),
(210,293,o),
(188,315,o),
(160,315,cs),
(132,315,o),
(110,293,o),
(110,265,cs),
(110,235,ls),
(110,207,o),
(132,185,o),
(160,185,cs)
);
},
{
closed = 1;
nodes = (
(188,370,o),
(210,392,o),
(210,420,cs),
(210,500,ls),
(210,528,o),
(188,550,o),
(160,550,cs),
(132,550,o),
(110,528,o),
(110,500,cs),
(110,420,ls),
(110,392,o),
(132,370,o),
(160,370,cs)
);
}
);
width = 260;
}
);
unicode = 1636;
}
{
glyphname = "five-ar";
layers = (
{
attr = {
colorPalette = 2;
};
hints = (
{
name = _corner.circle;
origin = (0,2);
type = Corner;
},
{
name = _corner.circle;
options = 1;
origin = (0,3);
scale = (1,-1);
type = Corner;
},
{
name = _corner.circle;
origin = (1,2);
type = Corner;
},
{
name = _corner.circle;
options = 1;
origin = (1,3);
scale = (1,-1);
type = Corner;
}
);
layerId = m01;
shapes = (
{
closed = 1;
nodes = (
(100,120,l),
(100,320,l),
(0,320,l),
(0,120,l)
);
},
{
closed = 1;
nodes = (
(210,120,l),
(210,320,l),
(110,320,l),
(110,120,l)
);
}
);
width = 260;
}
);
unicode = (1637,1781);
}
{
glyphname = "six-ar";
layers = (
{
attr = {
colorPalette = 2;
};
hints = (
{
name = _corner.circle;
origin = (0,2);
type = Corner;
},
{
name = _corner.circle;
options = 1;
origin = (0,3);
scale = (1,-1);
type = Corner;
},
{
name = _corner.circle;
origin = (1,2);
type = Corner;
},
{
name = _corner.circle;
options = 1;
origin = (1,3);
scale = (1,-1);
type = Corner;
}
);
layerId = m01;
shapes = (
{
closed = 1;
nodes = (
(210,0,l),
(210,500,l),
(110,500,l),
(110,0,l)
);
},
{
closed = 1;
nodes = (
(100,420,l),
(100,500,l),
(0,500,l),
(0,420,l)
);
}
);
width = 260;
}
);
unicode = (1638,1782);
}
{
glyphname = "seven-ar";
layers = (
{
attr = {
colorPalette = 2;
};
layerId = m01;
shapes = (
{
closed = 1;
nodes = (
(298,-50,o),
(320,-28,o),
(320,0,cs),
(320,500,ls),
(320,528,o),
(298,550,o),
(270,550,cs),
(242,550,o),
(220,528,o),
(220,500,cs),
(220,0,ls),
(220,-28,o),
(242,-50,o),
(270,-50,cs)
);
},
{
closed = 1;
nodes = (
(188,-50,o),
(210,-28,o),
(210,0,cs),
(210,80,ls),
(210,108,o),
(188,130,o),
(160,130,cs),
(132,130,o),
(110,108,o),
(110,80,cs),
(110,0,ls),
(110,-28,o),
(132,-50,o),
(160,-50,cs)
);
},
{
closed = 1;
nodes = (
(78,-50,o),
(100,-28,o),
(100,0,cs),
(100,500,ls),
(100,528,o),
(78,550,o),
(50,550,cs),
(22,550,o),
(0,528,o),
(0,500,cs),
(0,0,ls),
(0,-28,o),
(22,-50,o),
(50,-50,cs)
);
}
);
width = 370;
}
);
unicode = (1639,1783);
}
{
glyphname = "eight-ar";
layers = (
{
attr = {
colorPalette = 2;
};
layerId = m01;
shapes = (
{
closed = 1;
nodes = (
(298,-50,o),
(320,-28,o),
(320,0,cs),
(320,500,ls),
(320,528,o),
(298,550,o),
(270,550,cs),
(242,550,o),
(220,528,o),
(220,500,cs),
(220,0,ls),
(220,-28,o),
(242,-50,o),
(270,-50,cs)
);
},
{
closed = 1;
nodes = (
(78,-50,o),
(100,-28,o),
(100,0,cs),
(100,500,ls),
(100,528,o),
(78,550,o),
(50,550,cs),
(22,550,o),
(0,528,o),
(0,500,cs),
(0,0,ls),
(0,-28,o),
(22,-50,o),
(50,-50,cs)
);
},
{
closed = 1;
nodes = (
(188,370,o),
(210,392,o),
(210,420,cs),
(210,500,ls),
(210,528,o),
(188,550,o),
(160,550,cs),
(132,550,o),
(110,528,o),
(110,500,cs),
(110,420,ls),
(110,392,o),
(132,370,o),
(160,370,cs)
);
}
);
width = 370;
}
);
unicode = (1640,1784);
}
{
glyphname = "nine-ar";
layers = (
{
attr = {
colorPalette = 2;
};
hints = (
{
name = _corner.circle;
origin = (0,2);
type = Corner;
},
{
name = _corner.circle;
options = 1;
origin = (0,3);
scale = (1,-1);
type = Corner;
},
{
name = _corner.circle;
origin = (1,2);
type = Corner;
},
{
name = _corner.circle;
options = 1;
origin = (1,3);
scale = (1,-1);
type = Corner;
}
);
layerId = m01;
shapes = (
{
closed = 1;
nodes = (
(210,0,l),
(210,500,l),
(110,500,l),
(110,0,l)
);
},
{
closed = 1;
nodes = (
(100,300,l),
(100,500,l),
(0,500,l),
(0,300,l)
);
}
);
width = 260;
}
);
unicode = (1641,1785);
}
{
glyphname = "percent-ar";
layers = (
{
attr = {
colorPalette = 2;
};
layerId = m01;
shapes = (
{
closed = 1;
nodes = (
(188,-50,o),
(210,-28,o),
(210,0,cs),
(210,500,ls),
(210,528,o),
(188,550,o),
(160,550,cs),
(132,550,o),
(110,528,o),
(110,500,cs),
(110,0,ls),
(110,-28,o),
(132,-50,o),
(160,-50,cs)
);
},
{
pos = (220,-50);
ref = "dotabove-ar";
},
{
pos = (0,450);
ref = "dotabove-ar";
}
);
width = 370;
}
);
unicode = 1642;
}
{
glyphname = "behDotless-ar";
layers = (
{
anchors = (
{
name = bottom;
pos = (50,-70);
},
{
name = bottom.m;
pos = (50,-300);
},
{
name = ring;
pos = (75,0);
},
{
name = top;
pos = (50,390);
},
{
name = top.m;
pos = (50,910);
}
);
attr = {
colorPalette = 2;
};
hints = (
{
name = _corner.circle;
origin = (0,2);
type = Corner;
},
{
name = _corner.circle;
origin = (0,3);
scale = (1,-1);
type = Corner;
}
);
layerId = m01;
shapes = (
{
closed = 1;
nodes = (
(100,0,l),
(100,320,l),
(0,320,l),
(0,0,l)
);
}
);
width = 150;
}
);
unicode = 1646;
}
{
glyphname = "hehgoal-ar";
layers = (
{
anchors = (
{
name = bottom.m;
pos = (105,-300);
},
{
name = top;
pos = (105,150);
},
{
name = top.m;
pos = (105,910);
}
);
attr = {
colorPalette = 2;
};
layerId = m01;
shapes = (
{
closed = 1;
nodes = (
(77,-171,o),
(100,-149,o),
(100,-121,cs),
(100,-120,l),
(100,80,ls),
(100,108,o),
(78,130,o),
(50,130,cs),
(22,130,o),
(0,108,o),
(0,80,cs),
(0,-120,ls),
(0,-148,o),
(21,-170,o),
(49,-170,cs)
);
},
{
closed = 1;
nodes = (
(187,-51,o),
(210,-29,o),
(210,-1,cs),
(210,0,l),
(210,80,ls),
(210,108,o),
(188,130,o),
(160,130,cs),
(132,130,o),
(110,108,o),
(110,80,cs),
(110,0,ls),
(110,-28,o),
(131,-50,o),
(159,-50,cs)
);
}
);
width = 260;
}
);
unicode = 1729;
}
{
glyphname = "yehbarree-ar";
layers = (
{
anchors = (
{
name = bottom.m;
pos = (50,-300);
},
{
name = top;
pos = (50,390);
},
{
name = top.m;
pos = (50,910);
}
);
attr = {
colorPalette = 2;
};
background = {
hints = (
{
name = _corner.circle;
type = Corner;
},
{
name = _corner.circle;
scale = (1,-1);
type = Corner;
},
{
name = _corner.circle;
origin = (0,2);
type = Corner;
},
{
name = _corner.circle;
origin = (0,3);
scale = (1,-1);
type = Corner;
},
{
name = _corner.circle;
origin = (1,2);
type = Corner;
},
{
name = _corner.circle;
origin = (1,3);
scale = (1,-1);
type = Corner;
}
);
shapes = (
{
closed = 1;
nodes = (
(170,-170,l),
(270,-170,l),
(270,-70,l),
(170,-70,l)
);
},
{
closed = 1;
nodes = (
(100,-120,l),
(100,150,l),
(0,150,l),
(0,-120,l)
);
}
);
};
guides = (
{
pos = (44,-270);
}
);
layerId = m01;
shapes = (
{
closed = 1;
nodes = (
(160,0,l),
(460,0,ls),
(488,0,o),
(510,22,o),
(510,50,cs),
(510,78,o),
(488,100,o),
(460,100,cs),
(160,100,ls),
(132,100,o),
(110,79,o),
(110,51,cs),
(109,23,o),
(131,0,o),
(159,0,cs)
);
},
{
closed = 1;
nodes = (
(77,-1,o),
(100,21,o),
(100,49,cs),
(100,50,l),
(100,320,ls),
(100,348,o),
(78,370,o),
(50,370,cs),
(22,370,o),
(0,348,o),
(0,320,cs),
(0,50,ls),
(0,22,o),
(21,0,o),
(49,0,cs)
);
},
{
closed = 1;
nodes = (
(187,199,o),
(210,221,o),
(210,249,cs),
(210,250,l),
(210,320,ls),
(210,348,o),
(188,370,o),
(160,370,cs),
(132,370,o),
(110,348,o),
(110,320,cs),
(110,250,ls),
(110,222,o),
(131,200,o),
(159,200,cs)
);
}
);
width = 560;
}
);
unicode = 1746;
}
{
glyphname = "fullstop-ar";
layers = (
{
attr = {
colorPalette = 3;
};
layerId = m01;
shapes = (
{
closed = 1;
nodes = (
(50,0,l),
(100,0,ls),
(128,0,o),
(150,22,o),
(150,50,cs),
(150,78,o),
(128,100,o),
(100,100,cs),
(50,100,ls),
(22,100,o),
(0,79,o),
(0,51,cs),
(-1,23,o),
(21,0,o),
(49,0,cs)
);
}
);
width = 200;
}
);
unicode = 1748;
}
{
glyphname = "fourFarsi-ar";
layers = (
{
attr = {
colorPalette = 2;
};
layerId = m01;
shapes = (
{
closed = 1;
nodes = (
(78,-50,o),
(100,-28,o),
(100,0,cs),
(100,500,ls),
(100,528,o),
(78,550,o),
(50,550,cs),
(22,550,o),
(0,528,o),
(0,500,cs),
(0,0,ls),
(0,-28,o),
(22,-50,o),
(50,-50,cs)
);
},
{
closed = 1;
nodes = (
(188,240,o),
(210,262,o),
(210,290,cs),
(210,320,ls),
(210,348,o),
(188,370,o),
(160,370,cs),
(132,370,o),
(110,348,o),
(110,320,cs),
(110,290,ls),
(110,262,o),
(132,240,o),
(160,240,cs)
);
},
{
closed = 1;
nodes = (
(188,420,o),
(210,442,o),
(210,470,cs),
(210,500,ls),
(210,528,o),
(188,550,o),
(160,550,cs),
(132,550,o),
(110,528,o),
(110,500,cs),
(110,470,ls),
(110,442,o),
(132,420,o),
(160,420,cs)
);
}
);
width = 260;
}
);
unicode = 1780;
}
{
glyphname = guilsinglright;
layers = (
{
attr = {
colorPalette = 3;
};
layerId = m01;
shapes = (
{
closed = 1;
nodes = (
(77,59,o),
(100,81,o),
(100,109,cs),
(100,110,l),
(100,250,ls),
(100,278,o),
(78,300,o),
(50,300,cs),
(22,300,o),
(0,278,o),
(0,250,cs),
(0,110,ls),
(0,82,o),
(21,60,o),
(49,60,cs)
);
}
);
width = 150;
}
);
unicode = (8250,8249);
}
{
export = 0;
glyphname = _corner.circle;
layers = (
{
layerId = m01;
shapes = (
{
closed = 0;
nodes = (
(100,-1,l),
(100,0,ls),
(100,28,o),
(78,50,o),
(50,50,cs),
(22,50,o),
(0,28,o),
(0,0,cs),
(0,-1,l)
);
}
);
width = 100;
}
);
}
{
export = 0;
glyphname = "dotabove-ar";
layers = (
{
anchors = (
{
name = _top;
pos = (50,0);
}
);
layerId = m01;
shapes = (
{
closed = 1;
nodes = (
(78,0,o),
(100,22,o),
(100,50,cs),
(100,78,o),
(78,100,o),
(50,100,cs),
(22,100,o),
(0,78,o),
(0,50,cs),
(0,22,o),
(22,0,o),
(50,0,cs)
);
}
);
width = 100;
},
{
anchors = (
{
name = _top;
pos = (50,0);
}
);
associatedMasterId = m01;
attr = {
colorPalette = 0;
};
layerId = "D6F8E67F-E44F-4990-B97D-C0FBB357E682";
name = "6 Jun 21, 20:13";
shapes = (
{
closed = 1;
nodes = (
(78,0,o),
(100,22,o),
(100,50,cs),
(100,78,o),
(78,100,o),
(50,100,cs),
(22,100,o),
(0,78,o),
(0,50,cs),
(0,22,o),
(22,0,o),
(50,0,cs)
);
}
);
width = 100;
}
);
}
{
glyphname = "dotbelow-ar";
layers = (
{
anchors = (
{
name = _bottom;
pos = (50,100);
}
);
layerId = m01;
shapes = (
{
closed = 1;
nodes = (
(78,0,o),
(100,22,o),
(100,50,cs),
(100,78,o),
(78,100,o),
(50,100,cs),
(22,100,o),
(0,78,o),
(0,50,cs),
(0,22,o),
(22,0,o),
(50,0,cs)
);
}
);
width = 100;
},
{
anchors = (
{
name = _bottom;
pos = (50,100);
}
);
associatedMasterId = m01;
attr = {
colorPalette = 0;
};
layerId = "A656D26C-295E-482B-B17D-6528A888E689";
name = "6 Jun 21, 20:14";
shapes = (
{
closed = 1;
nodes = (
(78,0,o),
(100,22,o),
(100,50,cs),
(100,78,o),
(78,100,o),
(50,100,cs),
(22,100,o),
(0,78,o),
(0,50,cs),
(0,22,o),
(22,0,o),
(50,0,cs)
);
}
);
width = 100;
}
);
}
{
glyphname = "fourFarsi-ar.urdu";
layers = (
{
attr = {
colorPalette = 2;
};
layerId = m01;
shapes = (
{
closed = 1;
nodes = (
(78,-50,o),
(100,-28,o),
(100,0,cs),
(100,500,ls),
(100,528,o),
(78,550,o),
(50,550,cs),
(22,550,o),
(0,528,o),
(0,500,cs),
(0,0,ls),
(0,-28,o),
(22,-50,o),
(50,-50,cs)
);
},
{
closed = 1;
nodes = (
(188,250,o),
(210,272,o),
(210,300,cs),
(210,500,ls),
(210,528,o),
(188,550,o),
(160,550,cs),
(132,550,o),
(110,528,o),
(110,500,cs),
(110,300,ls),
(110,272,o),
(132,250,o),
(160,250,cs)
);
},
{
closed = 1;
nodes = (
(298,350,o),
(320,372,o),
(320,400,cs),
(320,500,ls),
(320,528,o),
(298,550,o),
(270,550,cs),
(242,550,o),
(220,528,o),
(220,500,cs),
(220,400,ls),
(220,372,o),
(242,350,o),
(270,350,cs)
);
}
);
width = 370;
}
);
}
{
glyphname = "heh-ar.fina";
layers = (
{
anchors = (
{
name = bottom.m;
pos = (105,-300);
},
{
name = top;
pos = (105,270);
},
{
name = top.m;
pos = (105,910);
}
);
attr = {
colorPalette = 2;
};
hints = (
{
name = _corner.circle;
origin = (0,2);
type = Corner;
},
{
name = _corner.circle;
origin = (0,3);
scale = (1,-1);
type = Corner;
},
{
name = _corner.circle;
origin = (1,2);
type = Corner;
},
{
name = _corner.circle;
origin = (1,3);
scale = (1,-1);
type = Corner;
}
);
layerId = m01;
shapes = (
{
closed = 1;
nodes = (
(100,0,l),
(100,200,l),
(0,200,l),
(0,0,l)
);
},
{
closed = 1;
nodes = (
(210,0,l),
(210,200,l),
(110,200,l),
(110,0,l)
);
}
);
width = 260;
}
);
}
{
glyphname = "lam-ar.yb";
layers = (
{
anchors = (
{
name = bottom.m;
pos = (50,-300);
},
{
name = top.m;
pos = (50,910);
}
);
attr = {
colorPalette = 2;
};
layerId = m01;
shapes = (
{
closed = 1;
nodes = (
(77,-51,o),
(100,-29,o),
(100,-1,cs),
(100,0,l),
(100,660,ls),
(100,688,o),
(78,710,o),
(50,710,cs),
(22,710,o),
(0,688,o),
(0,660,cs),
(0,0,ls),
(0,-28,o),
(21,-50,o),
(49,-50,cs)
);
}
);
width = 150;
}
);
}
{
glyphname = "sevenFarsi-ar.urdu";
layers = (
{
attr = {
colorPalette = 2;
};
layerId = m01;
shapes = (
{
closed = 1;
nodes = (
(78,-50,o),
(100,-28,o),
(100,0,cs),
(100,500,ls),
(100,528,o),
(78,550,o),
(50,550,cs),
(22,550,o),
(0,528,o),
(0,500,cs),
(0,0,ls),
(0,-28,o),
(22,-50,o),
(50,-50,cs)
);
},
{
closed = 1;
nodes = (
(188,-50,o),
(210,-28,o),
(210,0,cs),
(210,80,ls),
(210,108,o),
(188,130,o),
(160,130,cs),
(132,130,o),
(110,108,o),
(110,80,cs),
(110,0,ls),
(110,-28,o),
(132,-50,o),
(160,-50,cs)
);
}
);
width = 260;
}
);
}
{
export = 0;
glyphname = "tahabove-ar";
layers = (
{
anchors = (
{
name = _top;
pos = (25,0);
}
);
layerId = m01;
shapes = (
{
closed = 1;
nodes = (
(0,10,ls),
(0,4,o),
(4,0,o),
(10,0,cs),
(16,0,o),
(20,4,o),
(20,10,cs),
(20,90,ls),
(20,96,o),
(16,100,o),
(10,100,cs),
(4,100,o),
(0,96,o),
(0,90,cs)
);
},
{
closed = 1;
nodes = (
(30,10,ls),
(30,4,o),
(34,0,o),
(40,0,cs),
(46,0,o),
(50,4,o),
(50,10,cs),
(50,40,ls),
(50,46,o),
(46,50,o),
(40,50,cs),
(34,50,o),
(30,46,o),
(30,40,cs)
);
}
);
width = 50;
}
);
}
{
glyphname = "threedotsabove-ar";
layers = (
{
anchors = (
{
name = _top;
pos = (50,0);
}
);
layerId = m01;
shapes = (
{
closed = 1;
nodes = (
(78,220,o),
(100,242,o),
(100,270,cs),
(100,298,o),
(78,320,o),
(50,320,cs),
(22,320,o),
(0,298,o),
(0,270,cs),
(0,242,o),
(22,220,o),
(50,220,cs)
);
},
{
closed = 1;
nodes = (
(78,0,o),
(100,22,o),
(100,50,cs),
(100,78,o),
(78,100,o),
(50,100,cs),
(22,100,o),
(0,78,o),
(0,50,cs),
(0,22,o),
(22,0,o),
(50,0,cs)
);
},
{
closed = 1;
nodes = (
(78,110,o),
(100,132,o),
(100,160,cs),
(100,188,o),
(78,210,o),
(50,210,cs),
(22,210,o),
(0,188,o),
(0,160,cs),
(0,132,o),
(22,110,o),
(50,110,cs)
);
}
);
width = 100;
},
{
anchors = (
{
name = _top;
pos = (50,0);
}
);
associatedMasterId = m01;
attr = {
colorPalette = 0;
};
layerId = "D08CB5AA-4ABA-4A7F-B975-FCBD1590DFE6";
name = "6 Jun 21, 20:16";
shapes = (
{
closed = 1;
nodes = (
(78,0,o),
(100,22,o),
(100,50,cs),
(100,78,o),
(78,100,o),
(50,100,cs),
(22,100,o),
(0,78,o),
(0,50,cs),
(0,22,o),
(22,0,o),
(50,0,cs)
);
},
{
closed = 1;
nodes = (
(78,110,o),
(100,132,o),
(100,160,cs),
(100,188,o),
(78,210,o),
(50,210,cs),
(22,210,o),
(0,188,o),
(0,160,cs),
(0,132,o),
(22,110,o),
(50,110,cs)
);
},
{
closed = 1;
nodes = (
(78,220,o),
(100,242,o),
(100,270,cs),
(100,298,o),
(78,320,o),
(50,320,cs),
(22,320,o),
(0,298,o),
(0,270,cs),
(0,242,o),
(22,220,o),
(50,220,cs)
);
}
);
width = 100;
}
);
}
{
category = Mark;
glyphname = "threedotsbelow-ar";
layers = (
{
anchors = (
{
name = _bottom;
pos = (50,320);
}
);
layerId = m01;
shapes = (
{
closed = 1;
nodes = (
(78,220,o),
(100,242,o),
(100,270,cs),
(100,298,o),
(78,320,o),
(50,320,cs),
(22,320,o),
(0,298,o),
(0,270,cs),
(0,242,o),
(22,220,o),
(50,220,cs)
);
},
{
closed = 1;
nodes = (
(78,0,o),
(100,22,o),
(100,50,cs),
(100,78,o),
(78,100,o),
(50,100,cs),
(22,100,o),
(0,78,o),
(0,50,cs),
(0,22,o),
(22,0,o),
(50,0,cs)
);
},
{
closed = 1;
nodes = (
(78,110,o),
(100,132,o),
(100,160,cs),
(100,188,o),
(78,210,o),
(50,210,cs),
(22,210,o),
(0,188,o),
(0,160,cs),
(0,132,o),
(22,110,o),
(50,110,cs)
);
}
);
width = 100;
},
{
anchors = (
{
name = _bottom;
pos = (50,320);
}
);
associatedMasterId = m01;
attr = {
colorPalette = 0;
};
layerId = "7E49DBEB-3DE3-42AF-9517-E386C9DB8A12";
name = "6 Jun 21, 20:16";
shapes = (
{
closed = 1;
nodes = (
(78,0,o),
(100,22,o),
(100,50,cs),
(100,78,o),
(78,100,o),
(50,100,cs),
(22,100,o),
(0,78,o),
(0,50,cs),
(0,22,o),
(22,0,o),
(50,0,cs)
);
},
{
closed = 1;
nodes = (
(78,110,o),
(100,132,o),
(100,160,cs),
(100,188,o),
(78,210,o),
(50,210,cs),
(22,210,o),
(0,188,o),
(0,160,cs),
(0,132,o),
(22,110,o),
(50,110,cs)
);
},
{
closed = 1;
nodes = (
(78,220,o),
(100,242,o),
(100,270,cs),
(100,298,o),
(78,320,o),
(50,320,cs),
(22,320,o),
(0,298,o),
(0,270,cs),
(0,242,o),
(22,220,o),
(50,220,cs)
);
}
);
width = 100;
}
);
subCategory = Nonspacing;
}
{
glyphname = "threedotshorizontalabove-ar";
layers = (
{
anchors = (
{
name = _top;
pos = (160,0);
}
);
layerId = m01;
shapes = (
{
closed = 1;
nodes = (
(78,0,o),
(100,22,o),
(100,50,cs),
(100,78,o),
(78,100,o),
(50,100,cs),
(22,100,o),
(0,78,o),
(0,50,cs),
(0,22,o),
(22,0,o),
(50,0,cs)
);
},
{
closed = 1;
nodes = (
(188,0,o),
(210,22,o),
(210,50,cs),
(210,78,o),
(188,100,o),
(160,100,cs),
(132,100,o),
(110,78,o),
(110,50,cs),
(110,22,o),
(132,0,o),
(160,0,cs)
);
},
{
closed = 1;
nodes = (
(298,0,o),
(320,22,o),
(320,50,cs),
(320,78,o),
(298,100,o),
(270,100,cs),
(242,100,o),
(220,78,o),
(220,50,cs),
(220,22,o),
(242,0,o),
(270,0,cs)
);
}
);
width = 320;
},
{
anchors = (
{
name = _top;
pos = (160,0);
}
);
associatedMasterId = m01;
attr = {
colorPalette = 0;
};
layerId = "2327C842-BC57-4970-A5D9-5926FC182188";
name = "6 Jun 21, 20:14";
shapes = (
{
closed = 1;
nodes = (
(78,0,o),
(100,22,o),
(100,50,cs),
(100,78,o),
(78,100,o),
(50,100,cs),
(22,100,o),
(0,78,o),
(0,50,cs),
(0,22,o),
(22,0,o),
(50,0,cs)
);
},
{
closed = 1;
nodes = (
(188,0,o),
(210,22,o),
(210,50,cs),
(210,78,o),
(188,100,o),
(160,100,cs),
(132,100,o),
(110,78,o),
(110,50,cs),
(110,22,o),
(132,0,o),
(160,0,cs)
);
},
{
closed = 1;
nodes = (
(298,0,o),
(320,22,o),
(320,50,cs),
(320,78,o),
(298,100,o),
(270,100,cs),
(242,100,o),
(220,78,o),
(220,50,cs),
(220,22,o),
(242,0,o),
(270,0,cs)
);
}
);
width = 320;
}
);
}
{
glyphname = "threedotsupabove-ar";
layers = (
{
anchors = (
{
name = _top;
pos = (105,0);
}
);
layerId = m01;
shapes = (
{
closed = 1;
nodes = (
(78,110,o),
(100,132,o),
(100,160,cs),
(100,188,o),
(78,210,o),
(50,210,cs),
(22,210,o),
(0,188,o),
(0,160,cs),
(0,132,o),
(22,110,o),
(50,110,cs)
);
},
{
closed = 1;
nodes = (
(78,0,o),
(100,22,o),
(100,50,cs),
(100,78,o),
(78,100,o),
(50,100,cs),
(22,100,o),
(0,78,o),
(0,50,cs),
(0,22,o),
(22,0,o),
(50,0,cs)
);
},
{
closed = 1;
nodes = (
(188,0,o),
(210,22,o),
(210,50,cs),
(210,78,o),
(188,100,o),
(160,100,cs),
(132,100,o),
(110,78,o),
(110,50,cs),
(110,22,o),
(132,0,o),
(160,0,cs)
);
}
);
width = 210;
},
{
anchors = (
{
name = _top;
pos = (105,0);
}
);
associatedMasterId = m01;
attr = {
colorPalette = 0;
};
layerId = "3001C4C4-F8BA-4E43-B825-D63F59367315";
name = "6 Jun 21, 20:14";
shapes = (
{
closed = 1;
nodes = (
(78,0,o),
(100,22,o),
(100,50,cs),
(100,78,o),
(78,100,o),
(50,100,cs),
(22,100,o),
(0,78,o),
(0,50,cs),
(0,22,o),
(22,0,o),
(50,0,cs)
);
},
{
closed = 1;
nodes = (
(188,0,o),
(210,22,o),
(210,50,cs),
(210,78,o),
(188,100,o),
(160,100,cs),
(132,100,o),
(110,78,o),
(110,50,cs),
(110,22,o),
(132,0,o),
(160,0,cs)
);
},
{
closed = 1;
nodes = (
(78,110,o),
(100,132,o),
(100,160,cs),
(100,188,o),
(78,210,o),
(50,210,cs),
(22,210,o),
(0,188,o),
(0,160,cs),
(0,132,o),
(22,110,o),
(50,110,cs)
);
}
);
width = 210;
}
);
}
{
glyphname = "threedotsupbelow-ar";
layers = (
{
anchors = (
{
name = _bottom;
pos = (160,210);
}
);
layerId = m01;
shapes = (
{
closed = 1;
nodes = (
(78,0,o),
(100,22,o),
(100,50,cs),
(100,78,o),
(78,100,o),
(50,100,cs),
(22,100,o),
(0,78,o),
(0,50,cs),
(0,22,o),
(22,0,o),
(50,0,cs)
);
},
{
closed = 1;
nodes = (
(188,0,o),
(210,22,o),
(210,50,cs),
(210,78,o),
(188,100,o),
(160,100,cs),
(132,100,o),
(110,78,o),
(110,50,cs),
(110,22,o),
(132,0,o),
(160,0,cs)
);
},
{
closed = 1;
nodes = (
(188,110,o),
(210,132,o),
(210,160,cs),
(210,188,o),
(188,210,o),
(160,210,cs),
(132,210,o),
(110,188,o),
(110,160,cs),
(110,132,o),
(132,110,o),
(160,110,cs)
);
}
);
width = 210;
}
);
}
{
export = 0;
glyphname = "twodotshorizontalabove-ar";
layers = (
{
anchors = (
{
name = _top;
pos = (105,0);
}
);
layerId = m01;
shapes = (
{
closed = 1;
nodes = (
(78,0,o),
(100,22,o),
(100,50,cs),
(100,78,o),
(78,100,o),
(50,100,cs),
(22,100,o),
(0,78,o),
(0,50,cs),
(0,22,o),
(22,0,o),
(50,0,cs)
);
},
{
closed = 1;
nodes = (
(188,0,o),
(210,22,o),
(210,50,cs),
(210,78,o),
(188,100,o),
(160,100,cs),
(132,100,o),
(110,78,o),
(110,50,cs),
(110,22,o),
(132,0,o),
(160,0,cs)
);
}
);
width = 210;
},
{
anchors = (
{
name = _top;
pos = (105,0);
}
);
associatedMasterId = m01;
attr = {
colorPalette = 0;
};
layerId = "999C8250-EA0E-45D4-9B74-0ACDBC9D5D53";
name = "6 Jun 21, 20:14";
shapes = (
{
closed = 1;
nodes = (
(78,0,o),
(100,22,o),
(100,50,cs),
(100,78,o),
(78,100,o),
(50,100,cs),
(22,100,o),
(0,78,o),
(0,50,cs),
(0,22,o),
(22,0,o),
(50,0,cs)
);
},
{
closed = 1;
nodes = (
(188,0,o),
(210,22,o),
(210,50,cs),
(210,78,o),
(188,100,o),
(160,100,cs),
(132,100,o),
(110,78,o),
(110,50,cs),
(110,22,o),
(132,0,o),
(160,0,cs)
);
}
);
width = 210;
}
);
}
{
glyphname = "twodotsverticalabove-ar";
layers = (
{
anchors = (
{
name = _top;
pos = (50,0);
}
);
layerId = m01;
shapes = (
{
closed = 1;
nodes = (
(78,0,o),
(100,22,o),
(100,50,cs),
(100,78,o),
(78,100,o),
(50,100,cs),
(22,100,o),
(0,78,o),
(0,50,cs),
(0,22,o),
(22,0,o),
(50,0,cs)
);
},
{
closed = 1;
nodes = (
(78,110,o),
(100,132,o),
(100,160,cs),
(100,188,o),
(78,210,o),
(50,210,cs),
(22,210,o),
(0,188,o),
(0,160,cs),
(0,132,o),
(22,110,o),
(50,110,cs)
);
}
);
width = 100;
},
{
anchors = (
{
name = _top;
pos = (50,0);
}
);
associatedMasterId = m01;
attr = {
colorPalette = 0;
};
layerId = "032B2897-5398-44C2-B60B-69CEB0C23853";
name = "6 Jun 21, 20:14";
shapes = (
{
closed = 1;
nodes = (
(78,0,o),
(100,22,o),
(100,50,cs),
(100,78,o),
(78,100,o),
(50,100,cs),
(22,100,o),
(0,78,o),
(0,50,cs),
(0,22,o),
(22,0,o),
(50,0,cs)
);
},
{
closed = 1;
nodes = (
(78,110,o),
(100,132,o),
(100,160,cs),
(100,188,o),
(78,210,o),
(50,210,cs),
(22,210,o),
(0,188,o),
(0,160,cs),
(0,132,o),
(22,110,o),
(50,110,cs)
);
}
);
width = 100;
}
);
}
{
glyphname = "twodotsverticalbelow-ar";
layers = (
{
anchors = (
{
name = _bottom;
pos = (50,210);
}
);
layerId = m01;
shapes = (
{
closed = 1;
nodes = (
(78,110,o),
(100,132,o),
(100,160,cs),
(100,188,o),
(78,210,o),
(50,210,cs),
(22,210,o),
(0,188,o),
(0,160,cs),
(0,132,o),
(22,110,o),
(50,110,cs)
);
},
{
closed = 1;
nodes = (
(78,0,o),
(100,22,o),
(100,50,cs),
(100,78,o),
(78,100,o),
(50,100,cs),
(22,100,o),
(0,78,o),
(0,50,cs),
(0,22,o),
(22,0,o),
(50,0,cs)
);
}
);
width = 100;
},
{
anchors = (
{
name = _bottom;
pos = (50,210);
}
);
associatedMasterId = m01;
attr = {
colorPalette = 0;
};
layerId = "8756F234-32C8-4587-B84F-5658E2BF123D";
name = "6 Jun 21, 20:14";
shapes = (
{
closed = 1;
nodes = (
(78,0,o),
(100,22,o),
(100,50,cs),
(100,78,o),
(78,100,o),
(50,100,cs),
(22,100,o),
(0,78,o),
(0,50,cs),
(0,22,o),
(22,0,o),
(50,0,cs)
);
},
{
closed = 1;
nodes = (
(78,110,o),
(100,132,o),
(100,160,cs),
(100,188,o),
(78,210,o),
(50,210,cs),
(22,210,o),
(0,188,o),
(0,160,cs),
(0,132,o),
(22,110,o),
(50,110,cs)
);
}
);
width = 100;
}
);
}
{
glyphname = "waw-ar.alt";
layers = (
{
anchors = (
{
name = bottom.m;
pos = (105,-300);
},
{
name = top;
pos = (105,270);
},
{
name = top.m;
pos = (105,910);
}
);
attr = {
colorPalette = 3;
};
layerId = m01;
shapes = (
{
closed = 1;
nodes = (
(77,-51,o),
(100,-29,o),
(100,-1,cs),
(100,0,l),
(100,200,ls),
(100,228,o),
(78,250,o),
(50,250,cs),
(22,250,o),
(0,228,o),
(0,200,cs),
(0,0,ls),
(0,-28,o),
(21,-50,o),
(49,-50,cs)
);
},
{
alignment = -1;
pos = (110,-120);
ref = "behDotless-ar";
}
);
width = 260;
}
);
}
